<svg xmlns="http://www.w3.org/2000/svg" xmlns:xlink="http://www.w3.org/1999/xlink" width="93.503" height="93.198" viewBox="0 0 93.503 93.198">
  <defs>
    <clipPath id="clip-path">
      <rect id="Rectangle_20" data-name="Rectangle 20" width="93.503" height="93.198" fill="none"/>
    </clipPath>
  </defs>
  <g id="Group_22" data-name="Group 22" transform="translate(0 0)">
    <g id="Group_21" data-name="Group 21" transform="translate(0 0)" clip-path="url(#clip-path)">
      <path id="Path_56" data-name="Path 56" d="M51.126,40.04h-.812q-16.519,0-33.038.006a4.646,4.646,0,0,0-1.078.117,2.347,2.347,0,0,0-1.831,2.578,2.417,2.417,0,0,0,2.617,2.234H50.568c.175,0,.351-.032.558-.052ZM19.153,73.247a19.993,19.993,0,0,1,1.9,1.208c.857.675,1.643,1.448,2.48,2.156a7.806,7.806,0,0,0,10.058.058c.987-.812,1.922-1.682,2.883-2.526a1.52,1.52,0,0,1,2.4-.006c1.039.9,2.026,1.844,3.1,2.695a7.835,7.835,0,0,0,8.578.669,1.058,1.058,0,0,0,.636-1.065c-.026-2.435-.006-4.87-.013-7.3a4.221,4.221,0,0,0-.084-.584H19.153ZM19.108,58c1.1,0,2.065-.032,3.026.006A1.375,1.375,0,0,1,23.5,59.942a1.53,1.53,0,0,1-1.578.864c-1.734,0-3.467-.019-5.2.013a2.34,2.34,0,0,0-2.351,2.208c-.136,1.662,1.006,2.708,3,2.708H51.12V60.806H28.64c-.273,0-.545.013-.818-.013a1.461,1.461,0,0,1-1.487-1.422A1.444,1.444,0,0,1,27.861,58c.273-.013.545-.006.818-.006H51.12V47.838H19.16c-.026.312-.052.552-.052.792-.006,3.071,0,6.136,0,9.37M16.3,37.215V36.19c0-5.324-.032-10.649.013-15.98A11.026,11.026,0,0,1,38.36,20.1c.032,2.071-.019,4.136.019,6.208a3.2,3.2,0,0,0,3.156,3.247,3.126,3.126,0,0,0,3.195-2.987,76.886,76.886,0,0,0-.169-8.48C43.523,7.73,32.977.665,22.88,3.392A17.662,17.662,0,0,0,9.946,20.658c.091,18.9.026,37.8.026,56.7v1.052a7.651,7.651,0,0,0,6.156-2.351.6.6,0,0,0,.156-.4c.013-2.37.006-4.74.006-7.084-3.338-1.214-4.779-2.714-4.7-5.214a7.046,7.046,0,0,1,.89-2.993,4.98,4.98,0,0,1,3.753-2.37V47.748a5.33,5.33,0,0,1-4.682-5.013c-.13-2.61,1.442-4.474,4.747-5.519M93.5,75.448c-1.987,1.864-3.812,3.961-6.428,4.987A10.283,10.283,0,0,1,76.43,78.9c-.838-.643-1.61-1.37-2.5-2.13-2.513,2.584-5.324,4.513-9.071,4.493-3.708-.019-6.493-1.922-9.026-4.558-2.545,2.649-5.363,4.565-9.1,4.552-3.7-.007-6.506-1.89-8.987-4.506-.649.565-1.221,1.052-1.786,1.552a10.612,10.612,0,0,1-14.636.065c-.571-.5-1.143-1.006-1.779-1.571-.474.416-.948.779-1.377,1.2a10.726,10.726,0,0,1-15.259.136c-.74-.721-1.552-1.364-2.318-2.065a1.387,1.387,0,0,1-.266-2.013,1.4,1.4,0,0,1,2.1-.052c1.045.89,2.045,1.825,3.1,2.7.448.377.974.662,1.591,1.078V44.358H2.667a11.89,11.89,0,0,1-1.273-.019A1.373,1.373,0,0,1,.018,42.93a1.337,1.337,0,0,1,1.409-1.37c1.519-.045,3.045-.019,4.565-.019H7.167V40.378c0-6.61-.084-13.214.019-19.817C7.329,11.833,11.342,5.4,19.29,1.769A20.007,20.007,0,0,1,47.269,17.515a60.639,60.639,0,0,1,.156,9.655c-.117,2.928-3.045,5.26-6.071,5.156a5.967,5.967,0,0,1-5.714-5.675c-.045-2.13,0-4.26-.019-6.4a8.263,8.263,0,0,0-16.376-1.6,8.5,8.5,0,0,0-.13,1.727q-.019,8.123-.006,16.253a5.622,5.622,0,0,0,.052.591H51.172v-1.1c.006-5.234-.013-10.467.006-15.7a20.176,20.176,0,0,1,39.927-4.318,45.821,45.821,0,0,1,.305,11.194c-.156,2.922-3.1,5.143-6.091,5.019a5.986,5.986,0,0,1-5.669-5.539c-.058-1.24-.032-2.493-.013-3.74a1.37,1.37,0,0,1,1.4-1.467A1.354,1.354,0,0,1,82.372,23.1c.019,1.032-.006,2.071.013,3.1a3.191,3.191,0,1,0,6.37-.078c-.026-2.708.058-5.428-.188-8.117a17.35,17.35,0,0,0-34.232-1.247A18.154,18.154,0,0,0,54,20.567q-.039,26.522-.019,53.05v.851c.149-.026.253-.007.3-.058,1.169-1.2,1.98-1.084,3.175.1.838.825,1.766,1.558,2.851,2.506V75.759q0-27.622,0-55.238a11.045,11.045,0,0,1,21.558-3.662,1.439,1.439,0,0,1-.8,1.948c-.805.247-1.467-.136-1.818-1.078a8.212,8.212,0,0,0-7.188-5.74c-4.312-.519-8.727,3.065-8.87,7.409-.143,4.467-.065,8.948-.078,13.422-.006,2.857,0,5.714,0,8.72H64.32q13.558,0,27.116-.013a2.3,2.3,0,0,1,2.065.864v1.1a2.318,2.318,0,0,1-2.058.883q-13.548-.029-27.09-.013h-1.24v5.487c0,9.155.013,18.3-.013,27.46,0,.753.156,1.065.974,1.13a7.908,7.908,0,0,0,6.065-1.961c.916-.8,1.818-1.617,2.734-2.409a1.449,1.449,0,0,1,2.188-.019c.9.766,1.779,1.565,2.669,2.351a7.825,7.825,0,0,0,10.48.149c.864-.721,1.688-1.487,2.526-2.24,1.143-1.013,1.7-1.006,2.766.045Z" transform="translate(0.002 -0.005)" fill="#fff"/>
      <path id="Path_57" data-name="Path 57" d="M93.5,15.041c-1.818,1.792-3.552,3.714-5.915,4.779-4.325,1.948-8.285,1.195-11.85-1.87-.532-.455-1.052-.922-1.578-1.383-.039-.039-.11-.045-.279-.11-2.448,2.48-5.24,4.428-8.993,4.415-3.714-.006-6.493-1.916-9.045-4.532-2.539,2.584-5.331,4.539-9.071,4.532-3.721,0-6.506-1.89-9.045-4.506-6.045,6.045-12.116,6.091-18.168.045-.857.727-1.643,1.441-2.467,2.1A10.492,10.492,0,0,1,3.935,18.6c-1.162-.922-2.26-1.941-3.364-2.941a1.358,1.358,0,0,1-.221-2.013,1.387,1.387,0,0,1,2.032-.052c.883.74,1.734,1.526,2.6,2.292a7.842,7.842,0,0,0,10.9.039c.87-.766,1.727-1.545,2.6-2.292a1.422,1.422,0,0,1,2.117.013c.967.831,1.909,1.7,2.883,2.526a7.743,7.743,0,0,0,10.052.156c1.013-.825,1.967-1.721,2.954-2.584a1.486,1.486,0,0,1,2.325-.032c.877.753,1.734,1.526,2.6,2.292a7.83,7.83,0,0,0,10.623.045c.922-.792,1.812-1.623,2.74-2.415a1.432,1.432,0,0,1,2.117.006c.967.831,1.9,1.708,2.883,2.532a7.758,7.758,0,0,0,10.266-.013c.948-.8,1.87-1.649,2.805-2.467a1.472,1.472,0,0,1,2.26.013c.916.8,1.818,1.61,2.74,2.409a7.764,7.764,0,0,0,10.123.221c.948-.76,1.838-1.6,2.753-2.4C91.9,12.9,92.38,12.9,93.5,13.944Z" transform="translate(0 72.278)" fill="#fff"/>
    </g>
  </g>
</svg>
