<svg id="Group_26" data-name="Group 26" xmlns="http://www.w3.org/2000/svg" xmlns:xlink="http://www.w3.org/1999/xlink" width="96.561" height="85.993" viewBox="0 0 96.561 85.993">
  <defs>
    <clipPath id="clip-path">
      <rect id="Rectangle_22" data-name="Rectangle 22" width="96.561" height="85.993" fill="none"/>
    </clipPath>
  </defs>
  <g id="Group_25" data-name="Group 25" transform="translate(0 0)" clip-path="url(#clip-path)">
    <path id="Path_65" data-name="Path 65" d="M15.445,9.475c1.093,0,2.193-.02,3.286.007a1.4,1.4,0,1,1,.1,2.79q-3.43.06-6.853-.007a1.31,1.31,0,0,1-1.348-1.482,1.307,1.307,0,0,1,1.435-1.3c1.127-.02,2.253-.007,3.38-.007" transform="translate(60.617 54.019)" fill="#fff"/>
    <path id="Path_66" data-name="Path 66" d="M51.821,32.093H44.74a10.374,10.374,0,0,0,.027,1.717,1.122,1.122,0,0,0,.59.771,11.23,11.23,0,0,0,5.847,0,1.108,1.108,0,0,0,.59-.771,10.361,10.361,0,0,0,.027-1.717m-9.938-5.747a5.733,5.733,0,0,1-.013,1.019c-.161.992.282,1.455,1.241,1.515,1.837.134,3.681.376,5.525.369a50.987,50.987,0,0,0,5.143-.436c.637-.06,1.033-.376.912-1.12a9.062,9.062,0,0,1-.007-1.348Zm-21.666-7.39c5.458.355,16.127-5.787,18.1-10.414-.262-.013-.5-.034-.738-.034-2.414,0-4.835.02-7.255-.02a1.32,1.32,0,0,0-1.281.7,38.405,38.405,0,0,1-6.719,7.966c-.671.6-1.368,1.173-2.106,1.8m56.126.154c-.114-.221-.127-.288-.174-.322a40.111,40.111,0,0,1-8.8-9.75,1.38,1.38,0,0,0-.966-.51c-2.045-.047-4.084-.02-6.129-.02H58.03c4.587,6.417,10.836,9.421,18.313,10.6m-28.09,4.707c2.89-.268,5.767-.516,8.63-.818.4-.047,1.093.027,1.019-.684-.08-.751.469-1.656-.657-2.193-2.8-1.341-5.559-2.79-8.348-4.144a1.551,1.551,0,0,0-1.187-.027c-2.823,1.375-5.6,2.836-8.429,4.191-1.093.523-.523,1.4-.63,2.119s.563.684.972.731c2.87.3,5.74.557,8.63.825m27.661-1.857c1.14,9.113,2.266,18.159,3.4,27.191h5c-.02-.315-.02-.563-.054-.811q-.835-6.689-1.683-13.364c-.5-3.956-1.006-7.913-1.489-11.869-.067-.543-.208-.831-.845-.852-1.375-.04-2.749-.181-4.325-.3M8.5,55.958c1.375-10.93,2.749-21.793,4.09-32.462-3.225.671-6.437,1.334-9.7,2.012v30.45ZM93.7,25.528c-3.339-.7-6.538-1.375-9.73-2.045,1.355,10.742,2.722,21.6,4.09,32.448H93.7ZM84.712,52.089H11.842c-.161,1.3-.315,2.562-.469,3.836H85.2c-.168-1.314-.329-2.555-.49-3.836M2.883,22.4A27.336,27.336,0,0,0,19.936,15.5a38.646,38.646,0,0,0,9.4-12.58H2.883ZM76.45,49.159c-.208-1.7-.416-3.339-.617-4.982q-1.368-10.944-2.7-21.88a1.23,1.23,0,0,0-1.1-1.207c-7.188-1.911-13.116-5.613-17.026-12.137a.883.883,0,0,0-.55-.422C52.9,8.5,51.338,8.51,49.7,8.51c0,1.361.04,2.582-.013,3.8a1.207,1.207,0,0,0,.8,1.294c3.018,1.475,6,3.018,9.019,4.486a1.944,1.944,0,0,1,1.261,2.072,20.693,20.693,0,0,0,0,2.736,1.939,1.939,0,0,1-1.455,2.24c-1.811.376-2.032,1.482-1.8,2.971.013.094-.007.194.007.288a2.51,2.51,0,0,1-1.663,2.669c-.369.174-.751.315-1.2.5,0,.865-.027,1.743.007,2.615A2.6,2.6,0,0,1,53.014,36.9a12.335,12.335,0,0,1-9.448.007A2.6,2.6,0,0,1,41.9,34.2a14.242,14.242,0,0,0-.013-2.072,1.024,1.024,0,0,0-.469-.751,3.015,3.015,0,0,1-2.374-3.621c.034-.248-.027-.51.013-.751.134-.885-.161-1.308-1.093-1.562-1.79-.5-2.159-1.12-2.159-3,0-.724.047-1.448-.013-2.166a2.016,2.016,0,0,1,1.328-2.213c3.024-1.462,6.015-2.991,9.006-4.513.282-.148.684-.422.691-.65.067-1.435.034-2.863.034-4.392a26.4,26.4,0,0,1-2.836-.02c-1.515-.181-2.7.127-3.252,1.717a2.843,2.843,0,0,1-.422.624A27.255,27.255,0,0,1,24.65,21.049a1.444,1.444,0,0,0-1.254,1.5c-.288,2.682-.637,5.364-.972,8.04-.127,1.039-.7,1.576-1.569,1.509s-1.341-.691-1.241-1.757c.127-1.314.322-2.622.483-3.929.174-1.482.349-2.957.53-4.459-1.435.107-2.716.282-4,.282-.858.007-1.086.315-1.187,1.127-.818,6.759-1.69,13.518-2.541,20.278-.228,1.824-.449,3.655-.677,5.512h5c.047-.329.094-.6.127-.878.436-3.427.865-6.853,1.308-10.28a1.419,1.419,0,0,1,1.549-1.408,1.445,1.445,0,0,1,1.254,1.777c-.194,1.65-.422,3.3-.63,4.949-.241,1.925-.476,3.856-.724,5.847ZM96.561,57.9a2.15,2.15,0,0,1-2,.939q-46.289-.02-92.591-.013C.456,58.822,0,58.366,0,56.857V3.3A2.919,2.919,0,0,1,3.239.02H30.953c1.757.007,2.327.852,1.656,2.488-.429,1.033-.912,2.045-1.4,3.132H65.359c-.382-.838-.744-1.616-1.093-2.4a12.832,12.832,0,0,1-.5-1.214A1.4,1.4,0,0,1,64.535.148a1.385,1.385,0,0,1,1.844.831c.771,1.576,1.455,3.205,2.327,4.727A34.1,34.1,0,0,0,82.258,19.366a26.527,26.527,0,0,0,11.42,2.991V2.85H73.426a7.288,7.288,0,0,1-.939-.02,1.29,1.29,0,0,1-1.241-1.3A1.308,1.308,0,0,1,72.327.081,4.078,4.078,0,0,1,73.359.027C79.9.02,86.435.054,92.973,0a3.327,3.327,0,0,1,3.588,2.26Z" transform="translate(0 -0.001)" fill="#fff"/>
    <path id="Path_67" data-name="Path 67" d="M7.852,29.076a1.424,1.424,0,0,0,.1-.3c.007-2.038-.067-4.077.034-6.109.121-2.582-1.167-4.748-5.076-4.982V29.076Zm85.818.007V17.67c-2.816.174-5.3,1.515-5.09,5.123.087,1.5.013,3.011.013,4.513v1.777ZM85.7,29.069c0-2.528.074-5-.027-7.47a3.775,3.775,0,0,0-2.93-3.534,11.55,11.55,0,0,0-7.141.007,3.715,3.715,0,0,0-2.9,3.353c-.141,2.521-.034,5.063-.034,7.644Zm-61.832.013a1.955,1.955,0,0,0,.074-.355c0-2.139.013-4.271,0-6.411A4.115,4.115,0,0,0,20.734,18a11.624,11.624,0,0,0-5.774-.228c-3.024.59-4.157,2.025-4.164,5.09v6.223Zm39.409-.007c-.08-.255-.114-.409-.174-.55-2.287-5.2-4.587-10.387-6.846-15.591-.262-.617-.644-.644-1.173-.644-4.52.013-9.046.027-13.565-.013a1.222,1.222,0,0,0-1.321.872c-2.173,5-4.379,10-6.578,14.994-.121.275-.215.57-.349.932Zm33.28.637c-.617,1.676-1.844,2.26-3.594,2.26q-44.679-.04-89.372-.02c-2.588,0-3.594-1-3.594-3.581V16.59c.007-1.455.51-1.918,1.945-1.864,2.816.107,5.418.738,7.4,2.944,3.675-3.413,7.98-3.541,12.432-2.266,3.266.932,4.969,3.433,5,6.833.02,2.26,0,4.52,0,6.887,1.046,0,2.012.02,2.971-.02a.762.762,0,0,0,.53-.4q3.541-8.006,7.048-16.026a1.25,1.25,0,0,0,.007-.376H36.2q-9.143,0-18.293,0a4.6,4.6,0,0,1-1.214-.114,1.272,1.272,0,0,1-.979-1.422A1.293,1.293,0,0,1,16.912,9.5a7.28,7.28,0,0,1,.939-.034H64.327c.255,0,.5-.007.758.013a1.3,1.3,0,0,1,1.341,1.3,1.3,1.3,0,0,1-1.261,1.469c-.878.08-1.757.04-2.642.047-1.086.007-2.179,0-3.393,0,.134.389.215.65.322.9,2.22,5.056,4.459,10.105,6.659,15.168a1.034,1.034,0,0,0,1.18.771c.778-.06,1.562-.013,2.441-.013.02-.349.047-.65.047-.945.007-1.918-.007-3.836.007-5.753a6.9,6.9,0,0,1,5.351-7.168,14.693,14.693,0,0,1,8.094,0,7.694,7.694,0,0,1,3.909,2.474c1.971-2.179,4.506-2.863,7.289-3a2.2,2.2,0,0,1,2.132.845Z" transform="translate(0 54.019)" fill="#fff"/>
  </g>
</svg>
