<svg id="Group_20" data-name="Group 20" xmlns="http://www.w3.org/2000/svg" xmlns:xlink="http://www.w3.org/1999/xlink" width="93.204" height="93.198" viewBox="0 0 93.204 93.198">
  <defs>
    <clipPath id="clip-path">
      <rect id="Rectangle_19" data-name="Rectangle 19" width="93.204" height="93.198" fill="none"/>
    </clipPath>
  </defs>
  <g id="Group_19" data-name="Group 19" transform="translate(0 0)" clip-path="url(#clip-path)">
    <path id="Path_45" data-name="Path 45" d="M28.784,30.316c-1.568,0-1.711.531-1.711,1.931v22.47c-.019.732-.032,1.166.3,1.51s.784.356,1.542.369l.719.013a1.743,1.743,0,0,0,1.3-.408,1.818,1.818,0,0,0,.415-1.354c-.032-2.78-.019-5.566-.019-8.352,0,0,.013-11.306,0-13.807v-.512c.013-.739.013-1.179-.324-1.523a1.685,1.685,0,0,0-1.276-.337Zm6.356,26.26c.525,0,1.056.013,1.587.026s1.076.019,1.62.019a18.493,18.493,0,0,0,3.713-.311c3.92-.8,6.557-4.361,6.563-8.844q.019-17.543,0-35.072V11.118a10.354,10.354,0,0,0-.35-2.786c-1.063-3.92-4.283-6.278-8.6-6.3q-4.859-.019-9.712-.026-5.608,0-11.216.026a8.7,8.7,0,0,0-6.92,3.032,9.079,9.079,0,0,0-2.034,6.155q-.019,6.492-.006,12.991V46.191a26.648,26.648,0,0,0,.162,3.11,8.364,8.364,0,0,0,7.14,7.134,26.548,26.548,0,0,0,3.175.156l2-.013,1.257.013c1.536,0,1.536-.81,1.536-1.937V30.1c0-1.7.1-1.795,1.749-1.795h4.814c1.633,0,1.743.11,1.743,1.7l.006,25.347a1.2,1.2,0,0,0,.33.907,1.157,1.157,0,0,0,.868.33Zm-6.414,2.009a1.709,1.709,0,0,0-1.244.421,1.98,1.98,0,0,0-.428,1.458c.032,3.913.019,7.827.019,11.74v6.849l.991-.7c.266-.188.505-.369.745-.544a10.653,10.653,0,0,1,1.341-.907,2.127,2.127,0,0,0,1.205-2.125c-.019-2.857-.019-5.715-.019-8.572V60.477c.026-1.555-.246-1.834-1.788-1.866ZM18.9,86.906a3.457,3.457,0,0,0-1.458.233A2.717,2.717,0,0,0,16.1,90.224a1.244,1.244,0,0,0,1.263,1.011,3.014,3.014,0,0,0,.486-.052,1.857,1.857,0,0,1,.253-.026c2.669.013,5.319.019,7.976.019l14.041-.006c2.294,0,4.574,0,6.862.013h0a1.728,1.728,0,0,0,1.3-.415,1.6,1.6,0,0,0,.363-1.238,2.428,2.428,0,0,0-2.7-2.624s-.92,0-1.056-.006a.924.924,0,0,1-.978-.855c-.078-.4-.123-.81-.168-1.212a8.345,8.345,0,0,0-8.268-7.309,7.951,7.951,0,0,0-3.343.732,8.466,8.466,0,0,0-5.047,7.471c-.084.985-.3,1.173-1.361,1.173Zm-1.885,6.285c-2.073,0-2.961-.9-2.974-3v-.343a5.012,5.012,0,0,1,.609-3.071,3.984,3.984,0,0,1,3.415-1.892l3.525-.006q.952,0,1.9.019H23.5a1.586,1.586,0,0,0,1.173-.382,1.547,1.547,0,0,0,.382-1.147q-.019-11.643,0-23.28A1.3,1.3,0,0,0,23.6,58.6c-.894.013-1.736.013-2.579.013l-2.955-.006A10.341,10.341,0,0,1,7.771,48.3q-.01-6.648-.006-13.282s0-20.287.006-24.634A10.255,10.255,0,0,1,18.093.006L29.445,0c3.648,0,7.3,0,10.943.006a10.3,10.3,0,0,1,10.263,10.25q.01,19.059,0,38.111a10.313,10.313,0,0,1-10.27,10.244l-2.961.006c-.81,0-1.626,0-2.436-.019h-.013a1.657,1.657,0,0,0-1.238.389,1.605,1.605,0,0,0-.382,1.173c.019,4.581.032,9.162-.013,13.743a1.6,1.6,0,0,0,.4,1.192,1.454,1.454,0,0,0,1.076.376c.123,0,.253-.006.389-.013.2-.013.389-.019.583-.019a10.2,10.2,0,0,1,9.4,6.551c.531,1.438,1.037,2.793,3.149,3.363,1.451.382,2.32,1.73,2.32,3.59V90.7a2.453,2.453,0,0,1-2.507,2.488c-1.5.006-3.006.013-4.516.013Z" transform="translate(42.546 0)" fill="#fff"/>
    <path id="Path_46" data-name="Path 46" d="M34.023,18.646q4.859,0,9.706.026a1.949,1.949,0,0,0,1.5-.479,1.9,1.9,0,0,0,.382-1.477c-.058-.79-.045-1.594-.032-2.391.006-.363.013-.732.013-1.095,0-1.711-.279-1.989-1.957-1.989L10.9,11.247q-2.76,0-5.533-.026H5.365a1.862,1.862,0,0,0-1.4.447,1.8,1.8,0,0,0-.376,1.393c.039.823.032,1.652.019,2.482L3.6,16.657c0,1.717.272,2,1.95,2Zm5.345,6.3c1.412,0,1.49-.661,1.51-1.821l.019-.648a1.849,1.849,0,0,0-.4-1.38,1.8,1.8,0,0,0-1.354-.447c-2.391.019-4.736.026-7.082.026l-21.8-.006c-1.672,0-1.944.279-1.944,2v.292c0,1.7.279,1.983,1.963,1.983H38.461ZM3.57,26.953a1.628,1.628,0,0,0-1.212.33c-.337.343-.337.8-.33,1.549v.5c0,.745,0,1.2.343,1.542s.823.35,1.613.35h41.94a1.211,1.211,0,0,0,.907-.343,1.266,1.266,0,0,0,.33-.965c-.006-.175,0-.868,0-.868,0-1.795-.285-2.086-2.047-2.086Zm37.489,13.71a1.4,1.4,0,0,0,1.056-.369,1.362,1.362,0,0,0,.337-1.03c-.013-.544-.013-1.095-.006-1.639l.006-.927c0-.253.006-.505-.006-.758-.006-.389,0-.7.006-.959.013-.609.026-1.05-.3-1.38a1.963,1.963,0,0,0-1.484-.356H39.569a1.249,1.249,0,0,0-1.393,1.393c.013.525.006,1.05.006,1.574q-.01.875,0,1.749c.013.382,0,.693-.006.946-.013.616-.026,1.056.3,1.393.35.363.855.363,1.5.363l.641-.006ZM8.131,33.238a1.357,1.357,0,0,0-1.037.376A1.484,1.484,0,0,0,6.738,34.7c.019.745.013,1.484.006,2.222v.991c0,1.769,0,2.831,1.685,2.831.324,0,.739-.032,1.283-.084a1.25,1.25,0,0,0,1.3-1.361c-.013-.6-.006-1.186-.006-1.782,0,0,.006-1.322.006-1.549-.013-.382-.006-.7,0-.952.013-.648.026-1.082-.311-1.419-.35-.356-.855-.356-1.562-.356Zm29.286,9.434c-.991-.006-1.244-.279-1.25-1.309l-.006-.991c-.006-1.827-.019-3.654.013-5.481a1.644,1.644,0,0,0-.382-1.25,1.688,1.688,0,0,0-1.244-.408c-3.337.013-6.654.019-9.978.019s-9.965-.019-9.965-.019a1.64,1.64,0,0,0-1.205.4,1.642,1.642,0,0,0-.376,1.212c.026,1.84.019,3.68.013,5.514l-.006.959c-.006,1.095-.246,1.348-1.309,1.354l-2.844.006-2.844-.006c-1.056-.006-1.3-.259-1.3-1.354l-.006-.855c-.006-1.873-.013-3.745.013-5.618a1.66,1.66,0,0,0-.389-1.238A1.382,1.382,0,0,0,3.3,33.231l-.188.006c-.311.019-.616.026-.927.026-.389,0-.778-.013-1.166-.026-.674-.032-.991-.343-1-.991q-.039-3.129,0-6.272c.006-.706.324-1.011,1.043-1.03.641-.013,1.276-.019,1.911-.019.564,0,1.127.006,1.691.026h.026a1.625,1.625,0,0,0,1.244-.4,1.544,1.544,0,0,0,.376-1.179L6.3,22.612c-.006-1.173-.013-1.944-1.484-1.944l-1.866.006c-.13,0-.259-.006-.389-.013-.635-.039-.959-.356-.965-.933-.019-3.175-.026-6.35,0-9.518.006-.5.11-.985,1.27-.985l43.217-.006c1.341,0,1.529.188,1.529,1.523v.486q.01,4.072,0,8.157c0,1-.272,1.27-1.289,1.283h-.68c-1.153,0-2,.045-2.495.622s-.408,1.458-.246,2.546a1.267,1.267,0,0,0,1.464,1.1l2.073-.006c.518,0,1.037.006,1.555.013.9.013,1.179.285,1.186,1.179.019,2,.019,3.985,0,5.98-.006.816-.3,1.114-1.147,1.134-.492.013-.829.019-1.166.019-.279,0-.557,0-.842-.019H45.99a1.481,1.481,0,0,0-1.147.363,1.628,1.628,0,0,0-.382,1.2c.026,2.145.013,4.289.006,6.427-.006,1.173-.266,1.438-1.263,1.445-.946.006-1.9.006-2.844.006-.978,0-1.963,0-2.942-.006" transform="translate(0 50.513)" fill="#fff"/>
    <path id="Path_47" data-name="Path 47" d="M7.152,4.009A3.748,3.748,0,0,0,3.517,7.572a3.548,3.548,0,0,0,1.011,2.559,3.752,3.752,0,0,0,2.65,1.16,3.7,3.7,0,0,0,3.661-3.6,3.74,3.74,0,0,0-3.6-3.68Zm.019,9.382A5.657,5.657,0,0,1,3.09,11.739,5.778,5.778,0,0,1,1.457,7.6,5.583,5.583,0,0,1,7.191,1.942,5.659,5.659,0,0,1,11.26,3.575a5.781,5.781,0,0,1,1.646,4.153,5.581,5.581,0,0,1-5.734,5.663Z" transform="translate(7.983 10.641)" fill="#fff"/>
    <path id="Path_48" data-name="Path 48" d="M2.41,4.342a6.674,6.674,0,0,1-.577-.557l-.311-.33a4.321,4.321,0,0,1-.616-.661H.913a3.155,3.155,0,0,0,.6-.525l.454-.454c.156-.162.317-.324.428-.421.1.091.667.68.875.881,0,0,.538.525.628.616-.084.091-.641.641-.641.641-.272.272-.557.538-.836.8Z" transform="translate(4.97 7.638)" fill="#fff"/>
    <path id="Path_49" data-name="Path 49" d="M4.139,3.771a4.963,4.963,0,0,1-.816-.907c.045-.078.447-.479.8-.829,0,0,.557-.57.635-.641.123.117.317.3.5.5l.13.13c.11.11.227.214.35.324a2.805,2.805,0,0,1,.492.518,4.943,4.943,0,0,1-.577.6l-.324.311s-.505.512-.6.6l-.6-.6" transform="translate(18.208 7.633)" fill="#fff"/>
    <path id="Path_50" data-name="Path 50" d="M2.387,6.656c-.117-.1-.279-.266-.434-.421l-.311-.3a4.271,4.271,0,0,0-.473-.467A.866.866,0,0,1,.91,5.211a1.567,1.567,0,0,1,.292-.35A5.839,5.839,0,0,1,2.426,3.818a5.572,5.572,0,0,1,1.16,1.043l.3.292a3.755,3.755,0,0,1-.479.492l-.285.266s-.654.667-.739.745" transform="translate(4.986 20.92)" fill="#fff"/>
    <path id="Path_51" data-name="Path 51" d="M4.7,6.751c-.052-.045-.11-.11-.188-.194l-.188-.2a5.293,5.293,0,0,1-.991-1.108A5.093,5.093,0,0,1,4.2,4.211c.363-.389.473-.408.479-.408s.1.026.408.343a5.8,5.8,0,0,1,.972,1.147A5.849,5.849,0,0,1,5.045,6.408L4.9,6.557a1.812,1.812,0,0,1-.194.194" transform="translate(18.268 20.838)" fill="#fff"/>
    <path id="Path_52" data-name="Path 52" d="M4.178,3.035a7.449,7.449,0,0,0-.92-.026H3.141a4.272,4.272,0,0,1-.959-.052c.019-.045.019-.544.019-1.03A4.872,4.872,0,0,1,2.247.968c.052.019.577.019.92.019a4.781,4.781,0,0,1,1.063.052c-.006.058-.006.6-.006,1.127a4.506,4.506,0,0,1-.045.868" transform="translate(11.956 5.304)" fill="#fff"/>
    <path id="Path_53" data-name="Path 53" d="M2.467,4.719c-.058-.006-.57-.006-.946-.006h-.11a4.494,4.494,0,0,1-.927-.045C.5,4.615.5,4.1.5,3.6a4.569,4.569,0,0,1,.045-.933,7.6,7.6,0,0,0,.972.026,4.835,4.835,0,0,1,1.024.052c-.019.045-.019.512-.019.959a4.764,4.764,0,0,1-.052,1.017" transform="translate(2.652 14.602)" fill="#fff"/>
    <path id="Path_54" data-name="Path 54" d="M5.87,4.721C5.818,4.7,5.306,4.7,4.931,4.7H4.814a4.6,4.6,0,0,1-.933-.045C3.9,4.6,3.9,4.1,3.9,3.606a4.68,4.68,0,0,1,.045-.939c.045.019.564.019.933.019a5.412,5.412,0,0,1,1.056.045c-.019.052-.019.557-.019,1.05a4.68,4.68,0,0,1-.045.939" transform="translate(21.265 14.613)" fill="#fff"/>
    <path id="Path_55" data-name="Path 55" d="M2.823,6.41a3.279,3.279,0,0,1-.641-.039c.013-.058.013-.59.019-1.108a5.014,5.014,0,0,1,.039-.9,5.857,5.857,0,0,0,.894.032,5.873,5.873,0,0,1,1.1.045c-.013.052-.019.531-.019,1v.317c0,.246,0,.492-.013.648-.123.006-.3.006-.369.006Z" transform="translate(11.956 23.906)" fill="#fff"/>
  </g>
</svg>
