<svg id="Group_24" data-name="Group 24" xmlns="http://www.w3.org/2000/svg" xmlns:xlink="http://www.w3.org/1999/xlink" width="94.599" height="94.441" viewBox="0 0 94.599 94.441">
  <defs>
    <clipPath id="clip-path">
      <rect id="Rectangle_21" data-name="Rectangle 21" width="94.599" height="94.441" fill="none"/>
    </clipPath>
  </defs>
  <g id="Group_23" data-name="Group 23" transform="translate(0 0)" clip-path="url(#clip-path)">
    <path id="Path_58" data-name="Path 58" d="M73.194,64.531c.361-.545.683-1,.966-1.472a15.542,15.542,0,0,1,4.789-5.223,9.352,9.352,0,0,0,3.068-11.648A9.644,9.644,0,0,0,71.158,40.7a9.763,9.763,0,0,0-7.45,7.561A9.586,9.586,0,0,0,68.09,58.329a9.019,9.019,0,0,1,3.1,3.074c.611,1.025,1.288,2.017,2,3.127M85.663,51.8c-.145.558-.269,1.117-.434,1.669a12.206,12.206,0,0,1-5.4,7.2,6.661,6.661,0,0,0-2.306,2.319c-.6,1-1.235,1.977-1.885,2.943a2.781,2.781,0,0,1-4.874,0c-.269-.407-.545-.821-.788-1.242a14.892,14.892,0,0,0-4.211-4.631c-4.007-2.923-5.538-7.049-4.848-11.976.026-.2.026-.42.039-.657H57.631q-21.442,0-42.892.007c-4.671,0-8.264,2.4-9.736,6.484A9.7,9.7,0,0,0,14,66.935c14.788.046,29.582.013,44.37.02a6.654,6.654,0,0,1,6.839,4.92,6.559,6.559,0,0,1-6.149,8.3c-7.8.059-15.615.026-23.426.02a1.428,1.428,0,0,1-1.6-1.4c.007-.841.644-1.373,1.715-1.373q11.342-.01,22.691-.007a3.873,3.873,0,0,0,4.007-2.621,3.754,3.754,0,0,0-3.114-4.96,12.248,12.248,0,0,0-1.472-.059q-21.59-.01-43.174,0a12.559,12.559,0,0,1-2.142-25,18.086,18.086,0,0,1,2.385-.145q21.541-.01,43.075-.013a27.9,27.9,0,0,0,3.4-.223,1.693,1.693,0,0,0,1.091-.657,12.752,12.752,0,0,1,10.281-6.11,1.888,1.888,0,0,0,1.2-.624C82.8,25.936,76.742,8.895,62.907,5.886a22.268,22.268,0,0,0-4.566-.526Q37.361,5.3,16.376,5.341c-3.061,0-5.026,2.6-3.942,5.236a3.592,3.592,0,0,0,3.055,2.345,12.05,12.05,0,0,0,1.38.066h31.27c.309,0,.618-.013.92.013a1.446,1.446,0,0,1,1.511,1.406,1.494,1.494,0,0,1-1.55,1.393c-.092.007-.184.007-.276.007q-16.279,0-32.558-.007a6.621,6.621,0,0,1-1.2-13.165,8.06,8.06,0,0,1,1.38-.072q20.94,0,41.873,0A22.4,22.4,0,0,1,80.611,21.416,21.856,21.856,0,0,1,77.3,37.176c-.184.282-.368.565-.6.913.25.105.46.2.677.282a12.362,12.362,0,0,1,8.12,9.69,2.093,2.093,0,0,0,.171.42Z" transform="translate(8.936 14.236)" fill="#fff"/>
    <path id="Path_59" data-name="Path 59" d="M8.574,19.248c0,2.253-.033,4.48.013,6.707a.992.992,0,0,0,1.11.985.979.979,0,0,0,1.1-.985c.033-2.227.013-4.447.013-6.707ZM9.75,16.443a6.779,6.779,0,0,0,6.773-6.806A6.849,6.849,0,0,0,9.658,2.792a6.916,6.916,0,0,0-6.8,6.839A6.84,6.84,0,0,0,9.75,16.443M10.972,0c.552.158,1.117.282,1.655.473a9.268,9.268,0,0,1,6.589,7.89,9.226,9.226,0,0,1-4.769,9.618,1.346,1.346,0,0,0-.788,1.36c.039,2.115.046,4.237,0,6.359a3.959,3.959,0,0,1-2.9,3.928,3.822,3.822,0,0,1-4.329-1.669,5.168,5.168,0,0,1-.624-2.253c-.079-2.181-.007-4.362-.053-6.543a1.372,1.372,0,0,0-.539-.992C1.538,15.97-.459,12.16.152,8.4.862,4.007,3.647,1.15,8.174.151c.079-.02.145-.1.217-.151Z" transform="translate(0.242 0)" fill="#fff"/>
    <path id="Path_60" data-name="Path 60" d="M44.171,28.184q-11.066,0-22.139,0A18.663,18.663,0,0,0,3.178,44.154c-.854,5.591-.447,11.129,2.93,16.01a18.632,18.632,0,0,0,15.858,8.4c5.072.066,10.143.013,15.215.013a8.558,8.558,0,0,1,.92.02,1.258,1.258,0,0,1,1.222,1.268,1.322,1.322,0,0,1-1.13,1.458,3.853,3.853,0,0,1-.828.026q-7.657.01-15.313,0A21.461,21.461,0,0,1,.439,53.108C-.567,46.677-.021,40.324,3.96,34.767a21.493,21.493,0,0,1,18.513-9.388q22.182.03,44.363.007c4.02,0,7.088-1.649,8.875-5.295a9.166,9.166,0,0,0-8.1-13.119c-.953-.013-1.905.007-2.858-.013A1.5,1.5,0,0,1,63.1,5.579a1.434,1.434,0,0,1,1.59-1.419,19.133,19.133,0,0,1,6.569.618,12,12,0,0,1-2.194,23.249,16.442,16.442,0,0,1-2.2.151q-11.352.02-22.691.007" transform="translate(0.002 23.077)" fill="#fff"/>
    <path id="Path_61" data-name="Path 61" d="M15.733,7.77a3.823,3.823,0,1,0,3.837,3.869A3.821,3.821,0,0,0,15.733,7.77M9.091,11.62a6.606,6.606,0,0,1,6.576-6.661A6.648,6.648,0,1,1,9.091,11.62" transform="translate(50.631 27.613)" fill="#fff"/>
    <path id="Path_62" data-name="Path 62" d="M13.189,16.53a3.768,3.768,0,0,0-3.823-3.85,3.824,3.824,0,0,0-.059,7.647,3.781,3.781,0,0,0,3.883-3.8m2.8.092a6.646,6.646,0,0,1-13.29-.2A6.742,6.742,0,0,1,9.412,9.836a6.674,6.674,0,0,1,6.576,6.786" transform="translate(15.02 54.774)" fill="#fff"/>
    <path id="Path_63" data-name="Path 63" d="M14.488,18.191a2.7,2.7,0,1,0,2.68-2.713,2.727,2.727,0,0,0-2.68,2.713m8.205.007a5.515,5.515,0,1,1-5.505-5.505A5.525,5.525,0,0,1,22.693,18.2" transform="translate(64.956 70.687)" fill="#fff"/>
    <path id="Path_64" data-name="Path 64" d="M18.335,11.591a3.963,3.963,0,1,0,3.869,4.08,3.97,3.97,0,0,0-3.869-4.08m6.635,3.961a6.747,6.747,0,1,1-6.7-6.786,6.772,6.772,0,0,1,6.7,6.786" transform="translate(63.92 48.821)" fill="#fff"/>
  </g>
</svg>
