<svg xmlns="http://www.w3.org/2000/svg" xmlns:xlink="http://www.w3.org/1999/xlink" width="94.261" height="97.397" viewBox="0 0 94.261 97.397">
  <defs>
    <clipPath id="clip-path">
      <rect id="Rectangle_23" data-name="Rectangle 23" width="94.261" height="97.397" fill="none"/>
    </clipPath>
  </defs>
  <g id="Group_28" data-name="Group 28" transform="translate(0 0)">
    <g id="Group_27" data-name="Group 27" transform="translate(0 0)" clip-path="url(#clip-path)">
      <path id="Path_68" data-name="Path 68" d="M3.273,33.7c0,2.055.013,4.111-.013,6.166-.007.655.177.943.884.936,2.186-.033,4.373-.026,6.559-.007.694.007.916-.164.746-.916a59.361,59.361,0,0,0-3.41-10.6c-1.362-3.1-.537-2.363-3.79-2.487-.805-.033-1,.288-.988,1.034.039,1.951.013,3.914.013,5.872m87.715.144V29.437c0-2.664,0-2.645-2.69-2.645a1.276,1.276,0,0,0-1.362.825A63.5,63.5,0,0,0,82.8,39.93c-.164.714.072.871.707.864,2.193-.013,4.379-.033,6.566.007.759.013.936-.295.93-.988-.033-1.99-.013-3.98-.013-5.97M3.273,13.308v9.308c0,.484,0,.864.681.93,2.893.255,3.607-.02,5.459-2.265.2-.255.412-.511.609-.766A22.552,22.552,0,0,0,14.7,4.451c-.065-.864-.4-1.224-1.342-1.2-3,.065-6.009.059-9.014.007-.9-.013-1.1.314-1.087,1.139.046,2.972.02,5.944.02,8.916m87.715.092c0-2.972-.033-5.944.02-8.916.013-.923-.223-1.25-1.191-1.231-2.939.059-5.885.072-8.817-.007-1.041-.026-1.381.36-1.447,1.309a22.9,22.9,0,0,0,5.407,16.9c1.231,1.473,2.54,2.494,4.569,2.082a.492.492,0,0,1,.1,0c1.355,0,1.362,0,1.362-1.316V13.4M47.144,40.788q15.494,0,30.975.02c.746,0,1.113-.2,1.27-.962A60.472,60.472,0,0,1,83.8,26.387a1.113,1.113,0,0,0-.249-1.538,14.68,14.68,0,0,1-1.512-1.669A25.773,25.773,0,0,1,76.123,4.988c.092-1.715.111-1.715-1.663-1.715H19.769c-1.741,0-1.722,0-1.63,1.748a25.708,25.708,0,0,1-7.253,19.631,1.483,1.483,0,0,0-.347,1.951,60.575,60.575,0,0,1,4.242,12.7c.4,1.813.255,1.479,1.885,1.479q15.239.02,30.478.007m-.013,3.273H2.422C.38,44.061,0,43.688,0,41.691V2.376C0,.393.386,0,2.324,0H91.931c1.911,0,2.33.406,2.33,2.271V41.783c0,1.872-.419,2.278-2.324,2.278H47.131" transform="translate(0 -0.003)" fill="#fff"/>
      <path id="Path_69" data-name="Path 69" d="M23.338,14.633a2.276,2.276,0,0,0-2.271,2.206,2.233,2.233,0,0,0,4.464.085,2.282,2.282,0,0,0-2.193-2.291m56.426,0a2.282,2.282,0,0,0-2.226,2.258A2.233,2.233,0,0,0,82,16.878a2.278,2.278,0,0,0-2.239-2.245M67.883,16.9a2.232,2.232,0,1,0-4.464-.039,2.233,2.233,0,0,0,4.464.039M51.577,19.071a2.228,2.228,0,0,0,2.186-2.18,2.232,2.232,0,1,0-4.464-.013,2.229,2.229,0,0,0,2.278,2.193m-14.093,0a2.238,2.238,0,0,0,2.167-2.206,2.236,2.236,0,1,0-4.471.039,2.234,2.234,0,0,0,2.3,2.167M11.411,16.859a2.282,2.282,0,0,0-2.258-2.226A2.276,2.276,0,0,0,6.947,16.9a2.233,2.233,0,0,0,4.464-.046M51.518,31.7c1.538,0,3.07-.013,4.608.007.563.007.844-.157.838-.779-.026-1.728.033-3.463-.026-5.191a3.076,3.076,0,0,0-2.991-3.26,32.608,32.608,0,0,0-4.8,0c-1.938.144-2.985,1.4-3.031,3.424-.033,1.63.02,3.266-.02,4.9-.013.681.229.923.91.91,1.506-.039,3.011-.013,4.51-.013m-14.139,0c1.538,0,3.077-.02,4.608.007.635.013.871-.223.858-.858-.026-1.669.026-3.332-.02-5a3.22,3.22,0,0,0-3.469-3.417q-1.954-.049-3.921,0A3.209,3.209,0,0,0,32,25.879c-.039,1.636.02,3.266-.026,4.9-.02.759.3.943.995.93,1.466-.039,2.939-.013,4.405-.013m-14.172,0c1.571,0,3.142-.013,4.707.007.589.007.818-.209.812-.805-.026-1.728.039-3.463-.026-5.2a3.039,3.039,0,0,0-2.919-3.214,30.3,30.3,0,0,0-4.995.007,3.054,3.054,0,0,0-2.9,3.332c-.046,1.663.013,3.332-.026,4.995-.013.714.288.9.936.884,1.473-.026,2.946-.007,4.412-.007M9.12,31.7c1.538,0,3.07-.02,4.608.007.609.013.89-.177.884-.831-.033-1.7.026-3.4-.026-5.1a3.071,3.071,0,0,0-2.861-3.28,22.784,22.784,0,0,0-5.086,0,3.048,3.048,0,0,0-2.867,3.266c-.052,1.7,0,3.4-.026,5.093-.013.641.236.864.864.851,1.5-.026,3-.007,4.51-.007m70.617,0c1.538,0,3.077-.013,4.608.007.543.007.864-.124.858-.759-.026-1.767.046-3.535-.033-5.3a3.133,3.133,0,0,0-3.26-3.208c-1.407-.065-2.815-.059-4.216-.007a3.2,3.2,0,0,0-3.338,3.443c-.033,1.636.026,3.266-.02,4.9-.026.766.3.943.988.93,1.473-.039,2.946-.013,4.412-.013m-14.087,0c1.538,0,3.077-.013,4.608.007.576.007.831-.19.825-.792-.026-1.735.033-3.469-.026-5.2a3.037,3.037,0,0,0-2.821-3.208,21.41,21.41,0,0,0-5.178,0,3.018,3.018,0,0,0-2.808,3.208c-.059,1.735,0,3.463-.026,5.2-.007.6.249.8.825.792,1.532-.02,3.07-.007,4.6-.007M44.429,34.971H2.764c-1.872,0-2.278-.412-2.285-2.317,0-2.383.013-4.765,0-7.155a6.058,6.058,0,0,1,3.057-5.453c.55-.347.661-.609.432-1.231A5.574,5.574,0,1,1,14.592,15.51a4.947,4.947,0,0,1-.229,3.358c-.262.576-.151.916.419,1.146a.7.7,0,0,1,.249.157c.825.995,1.545.8,2.474.013.589-.5.831-.746.524-1.538a5.463,5.463,0,0,1,1.938-6.284,5.607,5.607,0,0,1,6.677.013,5.524,5.524,0,0,1,1.918,6.3c-.229.628-.314,1,.4,1.407,1.623.93,1.578.956,3.135-.216.537-.4.19-.746.059-1.106a5.528,5.528,0,0,1,3.672-7.24,5.341,5.341,0,0,1,5.59,1.434,5.318,5.318,0,0,1,1.257,5.708c-.236.714-.275,1.152.491,1.447.517.2.851,1.008,1.335.871a7.034,7.034,0,0,0,1.78-1.172c.5-.347.111-.707,0-1.034a5.526,5.526,0,0,1,3.653-7.253,5.341,5.341,0,0,1,5.59,1.427A5.32,5.32,0,0,1,56.8,18.652c-.236.7-.3,1.146.471,1.453.517.2.864.995,1.342.871a7.088,7.088,0,0,0,1.774-1.165c.511-.34.131-.7.013-1.028a5.549,5.549,0,0,1,3.45-7.207,5.378,5.378,0,0,1,5.787,1.355,5.307,5.307,0,0,1,1.25,5.8c-.249.707-.039.93.465,1.394,1.015.949,1.767.864,2.749-.026.491-.432.7-.642.452-1.316a5.576,5.576,0,1,1,10.65-3.24,5.111,5.111,0,0,1-.249,3.358c-.236.524-.137.786.367,1.093a6.143,6.143,0,0,1,3.155,5.695c-.039,2.35-.007,4.707-.007,7.057-.007,1.8-.439,2.226-2.285,2.226Z" transform="translate(2.656 62.423)" fill="#fff"/>
      <path id="Path_70" data-name="Path 70" d="M7.627,12.912a2.288,2.288,0,0,0-2.271,2.219,2.236,2.236,0,0,0,4.471.072,2.288,2.288,0,0,0-2.2-2.291m.1-3.325a5.431,5.431,0,0,1,5.42,5.616A5.444,5.444,0,0,1,7.4,20.7a5.442,5.442,0,0,1-5.368-5.669A5.441,5.441,0,0,1,7.732,9.587" transform="translate(11.297 53.166)" fill="#fff"/>
      <path id="Path_71" data-name="Path 71" d="M11.984,15.137a2.236,2.236,0,1,0-4.471.059,2.236,2.236,0,0,0,4.471-.059M9.778,9.586a5.434,5.434,0,0,1,5.531,5.61A5.435,5.435,0,0,1,9.673,20.7a5.43,5.43,0,0,1-5.479-5.557A5.434,5.434,0,0,1,9.778,9.586" transform="translate(23.26 53.161)" fill="#fff"/>
      <path id="Path_72" data-name="Path 72" d="M11.876,17.356a2.228,2.228,0,0,0,2.265-2.206,2.236,2.236,0,1,0-4.471.033,2.24,2.24,0,0,0,2.206,2.173m5.59-2.258a5.427,5.427,0,0,1-5.538,5.6,5.429,5.429,0,0,1-5.577-5.557,5.434,5.434,0,0,1,5.584-5.557A5.431,5.431,0,0,1,17.466,15.1" transform="translate(35.222 53.161)" fill="#fff"/>
      <path id="Path_73" data-name="Path 73" d="M16.3,15.2a2.232,2.232,0,1,0-4.464-.059A2.233,2.233,0,0,0,16.3,15.2m3.325-.085a5.429,5.429,0,0,1-5.544,5.59A5.43,5.43,0,0,1,8.508,15.13a5.442,5.442,0,0,1,5.6-5.544,5.427,5.427,0,0,1,5.518,5.525" transform="translate(47.185 53.161)" fill="#fff"/>
      <path id="Path_74" data-name="Path 74" d="M18.455,15.189a2.232,2.232,0,1,0-4.464-.046,2.233,2.233,0,0,0,4.464.046M21.78,15.1a5.43,5.43,0,0,1-5.544,5.6,5.434,5.434,0,0,1-5.571-5.571,5.433,5.433,0,0,1,5.59-5.544A5.427,5.427,0,0,1,21.78,15.1" transform="translate(59.147 53.161)" fill="#fff"/>
      <path id="Path_75" data-name="Path 75" d="M8.692,15.692A2.233,2.233,0,1,0,8.6,11.228a2.315,2.315,0,0,0-2.167,2.239,2.282,2.282,0,0,0,2.258,2.226M8.627,7.909a5.433,5.433,0,0,1,5.6,5.531,5.436,5.436,0,0,1-5.459,5.584,5.444,5.444,0,0,1-5.656-5.59A5.433,5.433,0,0,1,8.627,7.909" transform="translate(17.276 43.86)" fill="#fff"/>
      <path id="Path_76" data-name="Path 76" d="M10.849,15.7a2.236,2.236,0,1,0-.092-4.471,2.236,2.236,0,0,0,.092,4.471m5.538-2.18a5.433,5.433,0,0,1-5.531,5.505,5.435,5.435,0,0,1-5.584-5.656,5.44,5.44,0,0,1,5.584-5.459,5.438,5.438,0,0,1,5.531,5.61" transform="translate(29.238 43.86)" fill="#fff"/>
      <path id="Path_77" data-name="Path 77" d="M15.213,13.421A2.232,2.232,0,1,0,13,15.692a2.288,2.288,0,0,0,2.213-2.271m-2.18-5.512a5.443,5.443,0,0,1,5.512,5.629,5.44,5.44,0,0,1-5.564,5.485A5.434,5.434,0,0,1,7.43,13.342a5.427,5.427,0,0,1,5.6-5.433" transform="translate(41.206 43.86)" fill="#fff"/>
      <path id="Path_78" data-name="Path 78" d="M15.143,11.228a2.236,2.236,0,0,0-.052,4.471,2.236,2.236,0,1,0,.052-4.471m-.013,7.8a5.434,5.434,0,0,1-5.544-5.6A5.441,5.441,0,0,1,15.2,7.909a5.439,5.439,0,0,1,5.5,5.643,5.435,5.435,0,0,1-5.571,5.472" transform="translate(53.163 43.86)" fill="#fff"/>
      <path id="Path_79" data-name="Path 79" d="M27.239,14.051c0-2.743-.033-5.485.013-8.228.013-.838-.209-1.139-1.093-1.132q-8.277.059-16.548,0c-.9-.007-1.087.327-1.08,1.146q.049,8.228,0,16.45c-.007.838.209,1.139,1.093,1.132q8.268-.059,16.548,0c.9.007,1.093-.321,1.08-1.146-.039-2.743-.013-5.485-.013-8.222M17.976,26.671c-3.561,0-7.122.007-10.683,0-1.5,0-2.016-.511-2.016-1.99q-.01-10.644,0-21.274c0-1.434.524-1.964,1.938-1.964q10.693-.01,21.372,0c1.368,0,1.918.537,1.918,1.892q.01,10.732,0,21.464c0,1.335-.563,1.866-1.944,1.872-3.528.007-7.057,0-10.585,0" transform="translate(29.24 7.974)" fill="#fff"/>
      <path id="Path_80" data-name="Path 80" d="M12.706,3.135C12.719.955,12.464.831,14.421,1c1.466.131,1.545.065,1.636,1.538a33.356,33.356,0,0,0,1.355,6.788c.4,1.447-1.316,1.021-1.977,1.564-.491.393-.936.2-1.172-.465a25.526,25.526,0,0,1-1.558-7.292" transform="translate(70.44 5.254)" fill="#fff"/>
      <path id="Path_81" data-name="Path 81" d="M5.636,3.189A25.872,25.872,0,0,1,4.1,10.4c-.229.622-.517.779-1.165.53C.72,10.076.707,10.1,1.368,7.87a20.014,20.014,0,0,0,.877-5.59c.007-.923.34-1.427,1.342-1.25a1.116,1.116,0,0,0,.295-.007C5.806.833,5.636.82,5.636,3.189" transform="translate(5.473 5.246)" fill="#fff"/>
      <path id="Path_82" data-name="Path 82" d="M9.734,8.717c.079.5-.236,1.224.151,1.479.432.288.9-.327,1.329-.576,1.473-.838,1.473-.871,0-1.715-.432-.242-.877-.851-1.335-.576-.367.223-.065.91-.144,1.388m-3.26-.052c0-1.466-.013-2.939.007-4.405A1.657,1.657,0,0,1,9.086,2.688q3.859,2.229,7.626,4.6a1.636,1.636,0,0,1,0,2.959q-3.77,2.376-7.633,4.6a1.651,1.651,0,0,1-2.6-1.571c-.02-1.532-.007-3.07-.007-4.6" transform="translate(35.884 13.262)" fill="#fff"/>
    </g>
  </g>
</svg>
