<svg xmlns="http://www.w3.org/2000/svg" xmlns:xlink="http://www.w3.org/1999/xlink" width="92.978" height="82.389" viewBox="0 0 92.978 82.389">
  <defs>
    <clipPath id="clip-path">
      <rect id="Rectangle_25" data-name="Rectangle 25" width="92.978" height="82.389" fill="none"/>
    </clipPath>
  </defs>
  <g id="Group_32" data-name="Group 32" transform="translate(0 0)">
    <g id="Group_31" data-name="Group 31" transform="translate(0 0)" clip-path="url(#clip-path)">
      <path id="Path_85" data-name="Path 85" d="M47.373,25.153a29.569,29.569,0,0,0-2.386-8.234A22.932,22.932,0,0,0,33.574,5.247,11.447,11.447,0,0,0,23.9,5.4q-3.929,1.753-7.816,3.616A12.457,12.457,0,0,0,8.9,18.825a3.577,3.577,0,0,0-.031.812,1.458,1.458,0,0,0,1.365,1.445,1.4,1.4,0,0,0,1.611-1.033c.2-.658.228-1.365.4-2.035,1.015-4.022,4.538-6.863,8.228-6.574A12.494,12.494,0,0,1,27.7,14.7,23.133,23.133,0,0,1,34.97,26.678c.08.3.129.6.221.879a1.539,1.539,0,0,0,1.845,1.088,1.432,1.432,0,0,0,1.156-1.685A17.785,17.785,0,0,0,37.1,23.038,22.664,22.664,0,0,0,25.722,9.866c-.32-.166-.664-.283-.984-.455-.289-.148-.64-.166-.9-.473,3.265-1.882,6.592-2.165,9.814-.172,6.684,4.126,10.14,10.245,10.6,18.054a13.606,13.606,0,0,1-.91,6.58,9.268,9.268,0,0,1-5.854,5.11,20.232,20.232,0,0,0,1.131-4.587,15.328,15.328,0,0,0,.08-1.986,1.539,1.539,0,0,0-1.408-1.525,1.569,1.569,0,0,0-1.63,1.279c-.234.972-.1,1.986-.3,2.97A11.318,11.318,0,0,1,33.2,39.684a7.831,7.831,0,0,1-9.126,2.158c-.252-.1-.492-.228-.75-.314a1.556,1.556,0,1,0-1.162,2.884,11.985,11.985,0,0,0,10.085.068c2.417-1.187,4.84-2.361,7.33-3.376,4.335-1.777,6.543-5.153,7.5-9.55.111-.5.2-1,.3-1.5Z" transform="translate(45.605 21.875)" fill="#fff"/>
      <path id="Path_86" data-name="Path 86" d="M24.83,3.18c3.056,0,6.106-.018,9.163.012a13.425,13.425,0,0,1,2.429.228,12.523,12.523,0,0,1,9.31,16.831c-1.273,3.222-2.878,6.322-4.317,9.482-.178.394-.332.437-.646.129a15.74,15.74,0,0,0-1.562-1.377.953.953,0,0,1-.332-1.377c1.218-2.564,2.392-5.153,3.573-7.736a8.588,8.588,0,0,0,.566-5.325,9.167,9.167,0,0,0-9.273-7.49c-3.745-.031-7.5-.006-11.241-.012a3.078,3.078,0,0,0-1.162.16,1.455,1.455,0,0,0-1,1.55,1.433,1.433,0,0,0,1.2,1.4,4.069,4.069,0,0,0,.99.055q5.534,0,11.063,0c4.987.006,7.834,4.471,5.737,9-1,2.165-2.054,4.311-3,6.5-.344.793-.64.941-1.457.547A22.124,22.124,0,0,0,21.65,23.713,23.232,23.232,0,0,0,14.6,25.951c-.357.178-.689.424-.953-.154-1.211-2.7-2.589-5.338-3.64-8.1a5.947,5.947,0,0,1,4.3-7.816,14.662,14.662,0,0,1,2.976-.172c1.064-.043,1.691-.572,1.728-1.464a1.557,1.557,0,0,0-1.623-1.679,14.306,14.306,0,0,0-1.451-.018A9.2,9.2,0,0,0,7.421,19.728c1,2.269,2.109,4.489,3.105,6.752.855,1.943.972,1.267-.553,2.613a10.17,10.17,0,0,0-.8.732c-.461.529-.676.363-.935-.2C6.916,26.708,5.551,23.805,4.211,20.9a12.128,12.128,0,0,1-.916-7.176A12.544,12.544,0,0,1,15.759,3.18c3.025-.006,6.051,0,9.07,0M24.1.025c-2.816.1-6.291-.123-9.765.123A15.673,15.673,0,0,0,.417,12.066a16.168,16.168,0,0,0,1.23,10.768c1.494,3.142,2.915,6.315,4.4,9.458a1.255,1.255,0,0,1-.1,1.408A21.4,21.4,0,0,0,2.132,46.164C2.268,54.8,6.074,61.451,13.472,65.99a2.493,2.493,0,0,0,1.39.332c3.235-.006,6.469,0,9.7-.006,1.162,0,1.863-.584,1.857-1.513s-.7-1.5-1.876-1.507c-2.9-.006-5.8-.012-8.707.006a2.508,2.508,0,0,1-1.525-.461,19.387,19.387,0,0,1-8.96-16.665,19.626,19.626,0,0,1,37.517-8.013c.123.277.228.56.375.824a1.571,1.571,0,0,0,2.1.707,1.533,1.533,0,0,0,.719-2A18.254,18.254,0,0,0,43.9,33.619a1.391,1.391,0,0,1-.117-1.58c1.58-3.364,3.21-6.709,4.655-10.128A15.664,15.664,0,0,0,36.175.21a49.11,49.11,0,0,0-6.8-.184c-1.543-.006-3.081,0-5.282,0" transform="translate(0.002 -0.003)" fill="#fff"/>
      <path id="Path_87" data-name="Path 87" d="M47.429,15.208a.911.911,0,0,1-.56.941c-1.826,1-3.659,1.986-5.473,3-.461.258-.683.16-.9-.3A17.111,17.111,0,0,0,39.355,16.8c-.406-.6-.32-.922.326-1.254,1.642-.842,3.241-1.746,4.852-2.632,1.328-.732,1.814-.578,2.49.824a4.835,4.835,0,0,1,.406,1.47M19.769,11.34c.055-.1.074-.16.123-.191a3.108,3.108,0,0,1,.314-.172c3.259-1.82,6.451-1.439,9.556.369A20.612,20.612,0,0,1,38.347,21.7a19.242,19.242,0,0,1,1.125,12.84A8.7,8.7,0,0,1,33.3,40.845c2.029-6.02,1.316-11.745-1.248-17.329A22.882,22.882,0,0,0,19.769,11.34M31.349,33.933a19.03,19.03,0,0,1-.24,3.093c-.91,6.481-6.783,9.759-12.686,6.58a18.889,18.889,0,0,1-6.057-5.252A23.265,23.265,0,0,1,7.594,25.927a13.676,13.676,0,0,1,1.537-8.142,7.16,7.16,0,0,1,6.949-3.9,10.092,10.092,0,0,1,5.35,1.765c6.475,4.378,9.495,10.632,9.919,18.282M4.4,24.727C4.937,33.4,8.264,40.617,15.68,45.543c3.966,2.632,8.222,3.314,12.7,1.113,2.607-1.285,5.276-2.417,7.9-3.659,3.868-1.833,5.707-5.153,6.543-9.15a21.5,21.5,0,0,0-.633-10.558.958.958,0,0,1,.572-1.347c1.74-.9,3.431-1.912,5.178-2.8,2.2-1.119,2.9-2.091,2.466-5.018a6.188,6.188,0,0,0-3-4.446,3.046,3.046,0,0,0-3.339-.086c-2.054,1.156-4.151,2.245-6.192,3.419a1.017,1.017,0,0,1-1.525-.215,17.6,17.6,0,0,0-9.95-5.91,10.294,10.294,0,0,0-6.217.664Q15.772,9.557,11.376,11.6C7.538,13.413,5.706,16.7,4.826,20.65a16.976,16.976,0,0,0-.43,4.077" transform="translate(22.618 34.415)" fill="#fff"/>
      <path id="Path_88" data-name="Path 88" d="M13.475,8.921a7.357,7.357,0,0,1,6.051,3.788c.123.209.221.43.338.646a1.563,1.563,0,0,0,2.183.83,1.58,1.58,0,0,0,.59-2.269,10.3,10.3,0,0,0-4.046-4.538,10.672,10.672,0,0,0-16.081,7.1C1.25,20.759,6.336,27.136,12.565,27.068c1.07-.012,1.7-.523,1.759-1.414a1.505,1.505,0,0,0-1.556-1.623,7.6,7.6,0,0,1-6.475-4.169c-2.577-5,1.113-10.964,7.182-10.94" transform="translate(11.934 29.818)" fill="#fff"/>
    </g>
  </g>
</svg>
